<mxfile host="app.diagrams.net" agent="Mozilla/5.0 (Macintosh; Intel Mac OS X 10_15_7) AppleWebKit/537.36 (KHTML, like Gecko) Chrome/130.0.0.0 Safari/537.36" version="26.0.11">
  <diagram name="Page-1" id="6QpY3fKyO8dgMEDrTf6u">
    <mxGraphModel dx="1106" dy="659" grid="1" gridSize="10" guides="1" tooltips="1" connect="1" arrows="1" fold="1" page="1" pageScale="1" pageWidth="850" pageHeight="1100" math="0" shadow="0">
      <root>
        <mxCell id="0" />
        <mxCell id="1" parent="0" />
        <mxCell id="EQVufyyasDnSZfJb8GNS-1" value="&lt;font style=&quot;font-size: 24px;&quot;&gt;Expression&lt;/font&gt;" style="text;html=1;align=center;verticalAlign=middle;whiteSpace=wrap;rounded=0;" vertex="1" parent="1">
          <mxGeometry x="60" y="150" width="210" height="30" as="geometry" />
        </mxCell>
        <mxCell id="EQVufyyasDnSZfJb8GNS-2" value="all program language&lt;div&gt;bottom line:&lt;/div&gt;&lt;div&gt;&lt;b&gt;&lt;font style=&quot;font-size: 14px;&quot;&gt;expression + statement&lt;/font&gt;&lt;/b&gt;&lt;/div&gt;" style="text;html=1;align=center;verticalAlign=middle;whiteSpace=wrap;rounded=0;" vertex="1" parent="1">
          <mxGeometry x="130" y="10" width="430" height="90" as="geometry" />
        </mxCell>
        <mxCell id="EQVufyyasDnSZfJb8GNS-3" value="expression must return a value" style="text;html=1;align=center;verticalAlign=middle;whiteSpace=wrap;rounded=0;" vertex="1" parent="1">
          <mxGeometry x="70" y="190" width="250" height="30" as="geometry" />
        </mxCell>
        <mxCell id="EQVufyyasDnSZfJb8GNS-4" value="&lt;font style=&quot;font-size: 24px;&quot;&gt;statement&lt;/font&gt;" style="text;html=1;align=center;verticalAlign=middle;whiteSpace=wrap;rounded=0;" vertex="1" parent="1">
          <mxGeometry x="460" y="140" width="210" height="30" as="geometry" />
        </mxCell>
        <mxCell id="EQVufyyasDnSZfJb8GNS-6" value="statement is a action, no value" style="text;html=1;align=center;verticalAlign=middle;whiteSpace=wrap;rounded=0;" vertex="1" parent="1">
          <mxGeometry x="460" y="190" width="250" height="30" as="geometry" />
        </mxCell>
        <mxCell id="EQVufyyasDnSZfJb8GNS-7" value="if, while, for loop is a statement" style="text;html=1;align=center;verticalAlign=middle;whiteSpace=wrap;rounded=0;" vertex="1" parent="1">
          <mxGeometry x="460" y="220" width="250" height="30" as="geometry" />
        </mxCell>
        <mxCell id="EQVufyyasDnSZfJb8GNS-8" value="括號 入面一定係value" style="text;html=1;align=center;verticalAlign=middle;whiteSpace=wrap;rounded=0;" vertex="1" parent="1">
          <mxGeometry x="50" y="240" width="250" height="30" as="geometry" />
        </mxCell>
        <mxCell id="EQVufyyasDnSZfJb8GNS-9" value="括號 入面一定係value" style="text;html=1;align=center;verticalAlign=middle;whiteSpace=wrap;rounded=0;" vertex="1" parent="1">
          <mxGeometry x="60" y="250" width="250" height="30" as="geometry" />
        </mxCell>
      </root>
    </mxGraphModel>
  </diagram>
</mxfile>
